<svg xmlns="http://www.w3.org/2000/svg" xmlns:xlink="http://www.w3.org/1999/xlink" width="48" height="53" viewBox="0 0 48 53">
  <defs>
    <clipPath id="clip-path">
      <rect id="Rectangle_280" data-name="Rectangle 280" width="48" height="53" fill="none"/>
    </clipPath>
  </defs>
  <g id="Fax_Icon" transform="translate(-3 -3)">
    <g id="Vector_Smart_Object" data-name="Vector Smart Object">
      <g id="Vector_Smart_Object-2" data-name="Vector Smart Object" transform="translate(3 3)">
        <g id="Group_118" data-name="Group 118">
          <g id="Group_117" data-name="Group 117" clip-path="url(#clip-path)">
            <path id="Path_1503" data-name="Path 1503" d="M12.48,39.75a5.72,5.72,0,0,1-5.76,5.679A5.719,5.719,0,0,1,.96,39.75V15.143A5.719,5.719,0,0,1,6.72,9.464a5.72,5.72,0,0,1,5.76,5.679Z" fill="none" stroke="#424242" stroke-linecap="round" stroke-linejoin="round" stroke-width="1.906"/>
            <path id="Path_1504" data-name="Path 1504" d="M12.394,14.2H47.04V42.589H11.7" fill="none" stroke="#424242" stroke-linecap="round" stroke-linejoin="round" stroke-width="1.906"/>
            <path id="Path_1505" data-name="Path 1505" d="M17.28,14.2V.946H43.2V14.2" fill="none" stroke="#424242" stroke-linecap="round" stroke-linejoin="round" stroke-width="1.906"/>
            <rect id="Rectangle_279" data-name="Rectangle 279" width="22.08" height="5.679" transform="translate(19.2 18.929)" fill="none" stroke="#424242" stroke-linecap="round" stroke-linejoin="round" stroke-width="1.906"/>
            <path id="Path_1506" data-name="Path 1506" d="M21.6,29.339c0-.523-.645-.946-1.44-.946s-1.44.423-1.44.946.645.946,1.44.946,1.44-.423,1.44-.946" fill="#424242"/>
            <path id="Path_1507" data-name="Path 1507" d="M28.32,29.339c0-.523-.645-.946-1.44-.946s-1.44.423-1.44.946.645.946,1.44.946,1.44-.423,1.44-.946" fill="#424242"/>
            <path id="Path_1508" data-name="Path 1508" d="M35.04,29.339c0-.523-.645-.946-1.44-.946s-1.44.423-1.44.946.645.946,1.44.946,1.44-.423,1.44-.946" fill="#424242"/>
            <path id="Path_1509" data-name="Path 1509" d="M41.76,29.339c0-.523-.645-.946-1.44-.946s-1.44.423-1.44.946.645.946,1.44.946,1.44-.423,1.44-.946" fill="#424242"/>
            <path id="Path_1510" data-name="Path 1510" d="M21.6,33.125c0-.523-.645-.946-1.44-.946s-1.44.423-1.44.946.645.946,1.44.946,1.44-.423,1.44-.946" fill="#424242"/>
            <path id="Path_1511" data-name="Path 1511" d="M28.32,33.125c0-.523-.645-.946-1.44-.946s-1.44.423-1.44.946.645.946,1.44.946,1.44-.423,1.44-.946" fill="#424242"/>
            <path id="Path_1512" data-name="Path 1512" d="M35.04,33.125c0-.523-.645-.946-1.44-.946s-1.44.423-1.44.946.645.946,1.44.946,1.44-.423,1.44-.946" fill="#424242"/>
            <path id="Path_1513" data-name="Path 1513" d="M41.76,33.125c0-.523-.645-.946-1.44-.946s-1.44.423-1.44.946.645.946,1.44.946,1.44-.423,1.44-.946" fill="#424242"/>
            <path id="Path_1514" data-name="Path 1514" d="M21.6,36.911c0-.523-.645-.946-1.44-.946s-1.44.423-1.44.946.645.946,1.44.946,1.44-.423,1.44-.946" fill="#424242"/>
            <path id="Path_1515" data-name="Path 1515" d="M28.32,36.911c0-.523-.645-.946-1.44-.946s-1.44.423-1.44.946.645.946,1.44.946,1.44-.423,1.44-.946" fill="#424242"/>
            <path id="Path_1516" data-name="Path 1516" d="M35.04,36.911c0-.523-.645-.946-1.44-.946s-1.44.423-1.44.946.645.946,1.44.946,1.44-.423,1.44-.946" fill="#424242"/>
            <path id="Path_1517" data-name="Path 1517" d="M41.76,36.911c0-.523-.645-.946-1.44-.946s-1.44.423-1.44.946.645.946,1.44.946,1.44-.423,1.44-.946" fill="#424242"/>
            <path id="Path_1518" data-name="Path 1518" d="M6.72,45.429v1.893a4.8,4.8,0,0,0,9.6,0V42.589" fill="none" stroke="#424242" stroke-linecap="round" stroke-linejoin="round" stroke-width="1.906"/>
            <line id="Line_9" data-name="Line 9" x2="16.32" transform="translate(22.08 5.679)" fill="none" stroke="#424242" stroke-linecap="round" stroke-linejoin="round" stroke-width="1.92"/>
            <line id="Line_10" data-name="Line 10" x2="16.32" transform="translate(22.08 10.411)" fill="none" stroke="#424242" stroke-linecap="round" stroke-linejoin="round" stroke-width="1.92"/>
          </g>
        </g>
      </g>
      <path id="Color_Overlay" data-name="Color Overlay" d="M9.72,50.321V48.428A5.719,5.719,0,0,1,3.96,42.75V18.142A5.768,5.768,0,0,1,15.4,17.2H20.28V3.947H46.2V17.2h3.84V45.589H14.71a5.739,5.739,0,0,1-1.816,1.9l6.426-1.9v4.732a4.8,4.8,0,0,1-9.6,0Z" fill="#40515d"/>
    </g>
  </g>
</svg>
