<svg xmlns="http://www.w3.org/2000/svg" xmlns:xlink="http://www.w3.org/1999/xlink" width="48" height="47" viewBox="0 0 48 47">
  <defs>
    <clipPath id="clip-path">
      <rect id="Rectangle_273" data-name="Rectangle 273" width="48" height="47" fill="none"/>
    </clipPath>
  </defs>
  <g id="Present_Icon" transform="translate(-3 -3)">
    <g id="Present_Icon-2" data-name="Present_Icon">
      <g id="Present_Icon-3" data-name="Present_Icon" transform="translate(3 3)">
        <g id="Group_106" data-name="Group 106">
          <g id="Group_105" data-name="Group 105" clip-path="url(#clip-path)">
            <path id="Path_1465" data-name="Path 1465" d="M42.69,35.469H5.309A4.743,4.743,0,0,1,.552,30.751V5.267A4.743,4.743,0,0,1,5.309.548H42.69a4.743,4.743,0,0,1,4.757,4.718V30.751a4.743,4.743,0,0,1-4.757,4.718M5.309,1.644A3.642,3.642,0,0,0,1.657,5.267V30.751a3.642,3.642,0,0,0,3.652,3.623H42.69a3.642,3.642,0,0,0,3.652-3.623V5.267A3.642,3.642,0,0,0,42.69,1.644Z" fill="#1a1a1a"/>
            <path id="Path_1466" data-name="Path 1466" d="M42.69,35.469H5.309A4.743,4.743,0,0,1,.552,30.751V5.267A4.743,4.743,0,0,1,5.309.548H42.69a4.743,4.743,0,0,1,4.757,4.718V30.751A4.743,4.743,0,0,1,42.69,35.469ZM5.309,1.644A3.642,3.642,0,0,0,1.657,5.267V30.751a3.642,3.642,0,0,0,3.652,3.623H42.69a3.642,3.642,0,0,0,3.652-3.623V5.267A3.642,3.642,0,0,0,42.69,1.644Z" fill="none" stroke="#000" stroke-miterlimit="10" stroke-width="1.1"/>
            <path id="Path_1467" data-name="Path 1467" d="M17.037,46.452a.554.554,0,0,1-.294-.084.546.546,0,0,1-.173-.756l6.963-10.983a.555.555,0,0,1,.935,0L31.43,45.612a.545.545,0,0,1-.173.756.555.555,0,0,1-.762-.172L24,35.951,17.505,46.2a.553.553,0,0,1-.468.256" fill="#1a1a1a"/>
            <path id="Path_1468" data-name="Path 1468" d="M17.037,46.452a.554.554,0,0,1-.294-.084.546.546,0,0,1-.173-.756l6.963-10.983a.555.555,0,0,1,.935,0L31.43,45.612a.545.545,0,0,1-.173.756.555.555,0,0,1-.762-.172L24,35.951,17.505,46.2A.553.553,0,0,1,17.037,46.452Z" fill="none" stroke="#000" stroke-miterlimit="10" stroke-width="1.1"/>
            <path id="Path_1469" data-name="Path 1469" d="M41.894,13.191H29.062a.548.548,0,1,1,0-1.1H41.894a.548.548,0,1,1,0,1.1" fill="#1a1a1a"/>
            <path id="Path_1470" data-name="Path 1470" d="M41.894,13.191H29.062a.548.548,0,1,1,0-1.1H41.894a.548.548,0,1,1,0,1.1Z" fill="none" stroke="#000" stroke-miterlimit="10" stroke-width="1.1"/>
            <path id="Path_1471" data-name="Path 1471" d="M41.894,23.922H29.062a.548.548,0,1,1,0-1.1H41.894a.548.548,0,1,1,0,1.1" fill="#1a1a1a"/>
            <path id="Path_1472" data-name="Path 1472" d="M41.894,23.922H29.062a.548.548,0,1,1,0-1.1H41.894a.548.548,0,1,1,0,1.1Z" fill="none" stroke="#000" stroke-miterlimit="10" stroke-width="1.1"/>
            <path id="Path_1473" data-name="Path 1473" d="M14.215,26.6a8.592,8.592,0,1,1,8.661-8.591A8.636,8.636,0,0,1,14.215,26.6m0-16.087a7.5,7.5,0,1,0,7.557,7.5,7.535,7.535,0,0,0-7.557-7.5" fill="#1a1a1a"/>
            <path id="Path_1474" data-name="Path 1474" d="M14.215,26.6a8.592,8.592,0,1,1,8.661-8.591A8.636,8.636,0,0,1,14.215,26.6Zm0-16.087a7.5,7.5,0,1,0,7.557,7.5A7.535,7.535,0,0,0,14.215,10.513Z" fill="none" stroke="#000" stroke-miterlimit="10" stroke-width="1.1"/>
            <path id="Path_1475" data-name="Path 1475" d="M19.948,24.244a.553.553,0,0,1-.391-.16L13.824,18.4a.546.546,0,0,1-.162-.387V9.965a.552.552,0,0,1,1.1,0v7.817l5.572,5.526a.546.546,0,0,1,0,.775.553.553,0,0,1-.391.16" fill="#1a1a1a"/>
            <path id="Path_1476" data-name="Path 1476" d="M19.948,24.244a.553.553,0,0,1-.391-.16L13.824,18.4a.546.546,0,0,1-.162-.387V9.965a.552.552,0,0,1,1.1,0v7.817l5.572,5.526a.546.546,0,0,1,0,.775A.553.553,0,0,1,19.948,24.244Z" fill="none" stroke="#000" stroke-miterlimit="10" stroke-width="1.1"/>
          </g>
        </g>
      </g>
      <path id="Color_Overlay" data-name="Color Overlay" d="M33.494,49.2,27,38.95,20.5,49.2a.556.556,0,0,1-.761.172.546.546,0,0,1-.174-.756L26,38.469H8.309a4.743,4.743,0,0,1-4.756-4.718V8.267A4.743,4.743,0,0,1,8.309,3.548H45.69a4.744,4.744,0,0,1,4.757,4.719V33.751a4.744,4.744,0,0,1-4.757,4.718H28L34.43,48.612a.546.546,0,0,1-.174.756.554.554,0,0,1-.761-.172ZM27.031,37.373H45.69a3.642,3.642,0,0,0,3.652-3.623V8.267A3.642,3.642,0,0,0,45.69,4.644H8.309A3.642,3.642,0,0,0,4.657,8.267V33.751a3.642,3.642,0,0,0,3.652,3.623H27.031ZM8.553,21.009a8.662,8.662,0,0,1,17.323,0,8.529,8.529,0,0,1-2.5,6.028.552.552,0,0,1-.088.087A8.672,8.672,0,0,1,8.553,21.009Zm1.105,0A7.565,7.565,0,0,0,22.15,26.68L16.824,21.4a.546.546,0,0,1-.162-.387V13.532A7.531,7.531,0,0,0,9.658,21.009Zm8.109-.227L22.932,25.9a7.434,7.434,0,0,0,1.839-4.9,7.531,7.531,0,0,0-7-7.476Zm14.295,6.14a.548.548,0,1,1,0-1.1H44.894a.548.548,0,1,1,0,1.1Zm0-10.731a.548.548,0,1,1,0-1.1H44.894a.548.548,0,1,1,0,1.1Z" fill="#40515d"/>
    </g>
  </g>
</svg>
