<svg xmlns="http://www.w3.org/2000/svg" xmlns:xlink="http://www.w3.org/1999/xlink" width="65" height="36" viewBox="0 0 65 36">
  <defs>
    <clipPath id="clip-path">
      <rect id="Rectangle_283" data-name="Rectangle 283" width="65" height="36" transform="translate(0 0)" fill="none"/>
    </clipPath>
  </defs>
  <g id="Projector_Icon" transform="translate(-3 -3)">
    <g id="Vector_Smart_Object" data-name="Vector Smart Object">
      <g id="Vector_Smart_Object-2" data-name="Vector Smart Object" transform="translate(3 3)">
        <g id="Group_122" data-name="Group 122">
          <g id="Group_121" data-name="Group 121" clip-path="url(#clip-path)">
            <path id="Path_1535" data-name="Path 1535" d="M61.585,6.349h-5.82a12.44,12.44,0,0,0-21.693,0H3.415A3.478,3.478,0,0,0,0,9.879V26.164A3.482,3.482,0,0,0,3.415,29.7H7.271v3.687A2.575,2.575,0,0,0,9.8,36h4.714a2.575,2.575,0,0,0,2.525-2.614V29.7H47.819v3.687A2.575,2.575,0,0,0,50.344,36h4.714a2.571,2.571,0,0,0,2.52-2.614V29.7h4.007A3.482,3.482,0,0,0,65,26.164V9.879a3.478,3.478,0,0,0-3.415-3.531M34.646,12.455A10.726,10.726,0,0,1,35.812,8.15a10.13,10.13,0,0,1,18.213,0,10.779,10.779,0,0,1,1.18,4.956,10.295,10.295,0,1,1-20.577,0c0-.219,0-.437.018-.651M14.656,33.387a.148.148,0,0,1-.147.152H9.8a.148.148,0,0,1-.147-.152V29.7h5.008Zm40.549,0a.148.148,0,0,1-.147.152H50.344a.151.151,0,0,1-.151-.152V29.7H55.2Zm7.422-7.223a1.063,1.063,0,0,1-1.042,1.079H3.415a1.063,1.063,0,0,1-1.042-1.079V9.879A1.062,1.062,0,0,1,3.415,8.805H32.952a1.2,1.2,0,0,1-.041.138c-.083.257-.156.513-.225.775l-.046.176c-.078.314-.142.632-.2.95-.014.081-.023.162-.032.242-.041.252-.073.5-.1.76-.009.09-.018.185-.023.276-.023.328-.041.656-.041.984A12.91,12.91,0,0,0,44.918,26.216,12.906,12.906,0,0,0,57.578,13.106c0-.328-.014-.656-.037-.979l-.028-.28c-.023-.252-.05-.5-.092-.756-.009-.081-.023-.162-.037-.247-.05-.318-.115-.632-.193-.946-.014-.067-.032-.124-.05-.19-.064-.257-.138-.508-.22-.76-.014-.048-.023-.1-.041-.143h4.7a1.062,1.062,0,0,1,1.042,1.074Zm-17.708-4.69A8.239,8.239,0,0,0,53,13.106a8.088,8.088,0,1,0-16.166,0,8.236,8.236,0,0,0,8.083,8.368m0-14.279a5.819,5.819,0,0,1,5.705,5.911,5.711,5.711,0,1,1-11.416,0,5.82,5.82,0,0,1,5.71-5.911M9.648,13.619v8.81a1.189,1.189,0,0,1-2.378,0v-8.81a1.189,1.189,0,0,1,2.378,0m5.586,0v8.81a1.187,1.187,0,0,1-2.373,0v-8.81a1.187,1.187,0,1,1,2.373,0m5.591,0v8.81a1.187,1.187,0,0,1-2.373,0v-8.81a1.187,1.187,0,1,1,2.373,0m5.591,0v8.81a1.187,1.187,0,0,1-2.373,0v-8.81a1.187,1.187,0,1,1,2.373,0"/>
          </g>
        </g>
      </g>
      <path id="Color_Overlay" data-name="Color Overlay" d="M53.277,39a2.578,2.578,0,0,1-2.458-2.613V32.7H20.033v3.688A2.578,2.578,0,0,1,17.575,39H12.729a2.578,2.578,0,0,1-2.458-2.613V32.7H6.414A3.482,3.482,0,0,1,3,29.164V12.879A3.478,3.478,0,0,1,6.414,9.348H37.072a12.44,12.44,0,0,1,21.693,0h5.82A3.478,3.478,0,0,1,68,12.879V29.164A3.482,3.482,0,0,1,64.585,32.7H60.577v3.688A2.574,2.574,0,0,1,58.124,39Zm-.085-2.613a.152.152,0,0,0,.152.152h4.713a.148.148,0,0,0,.148-.152V32.7H53.192Zm-40.544,0a.148.148,0,0,0,.148.152h4.713a.148.148,0,0,0,.148-.152V32.7H12.648ZM5.373,12.879V29.164a1.063,1.063,0,0,0,1.041,1.079H64.585a1.063,1.063,0,0,0,1.041-1.079V12.879a1.061,1.061,0,0,0-1.041-1.074H59.88a1.346,1.346,0,0,1,.041.142c.083.252.156.5.221.76.018.067.037.123.05.19.078.314.142.627.193.946.014.085.028.167.037.247.041.252.068.5.092.756l.028.28c.022.323.036.652.036.979a12.9,12.9,0,0,1-12.659,13.11,12.91,12.91,0,0,1-12.668-13.11c0-.328.019-.656.041-.984,0-.09.014-.185.023-.275.022-.257.055-.509.1-.76.009-.081.018-.162.032-.242.056-.319.12-.637.2-.95l.046-.176c.068-.261.142-.517.225-.774a1.288,1.288,0,0,0,.041-.138H6.414A1.061,1.061,0,0,0,5.373,12.879Zm33.439-1.73a10.726,10.726,0,0,0-1.166,4.306c-.014.213-.018.432-.018.651a10.295,10.295,0,1,0,20.578,0,10.78,10.78,0,0,0-1.18-4.956,10.13,10.13,0,0,0-18.213,0ZM27.042,25.429v-8.81a1.187,1.187,0,0,1,2.373,0v8.81a1.187,1.187,0,0,1-2.373,0Zm-5.591,0v-8.81a1.187,1.187,0,0,1,2.373,0v8.81a1.187,1.187,0,0,1-2.373,0Zm-5.591,0v-8.81a1.187,1.187,0,0,1,2.373,0v8.81a1.187,1.187,0,0,1-2.373,0Zm-5.59,0v-8.81a1.188,1.188,0,0,1,2.377,0v8.81a1.188,1.188,0,0,1-2.377,0Zm29.564-9.323a8.088,8.088,0,1,1,16.167,0,8.088,8.088,0,1,1-16.167,0Zm2.373,0a5.711,5.711,0,1,0,11.416,0,5.711,5.711,0,1,0-11.416,0Z" fill="#40515d"/>
    </g>
  </g>
</svg>
