<svg xmlns="http://www.w3.org/2000/svg" xmlns:xlink="http://www.w3.org/1999/xlink" width="58" height="46" viewBox="0 0 58 46">
  <defs>
    <clipPath id="clip-path">
      <rect id="Rectangle_275" data-name="Rectangle 275" width="58" height="46" fill="none"/>
    </clipPath>
  </defs>
  <g id="Screen_Icon" transform="translate(-3 -3)">
    <g id="Screen_Icon-2" data-name="Screen_Icon">
      <g id="Screen_Icon-3" data-name="Screen_Icon" transform="translate(3 3)">
        <g id="Group_110" data-name="Group 110">
          <g id="Group_109" data-name="Group 109" clip-path="url(#clip-path)">
            <path id="Path_1489" data-name="Path 1489" d="M51.236,36.265H6.764c-3.357,0-6.088-2.107-6.088-4.7V5.219c0-2.59,2.731-4.7,6.088-4.7H51.236c3.357,0,6.088,2.107,6.088,4.7V31.568c0,2.59-2.731,4.7-6.088,4.7M6.764,1.565c-2.611,0-4.735,1.639-4.735,3.653V31.568c0,2.015,2.124,3.653,4.735,3.653H51.236c2.611,0,4.735-1.638,4.735-3.653V5.219c0-2.014-2.124-3.653-4.735-3.653Z" fill="#1a1a1a"/>
            <path id="Path_1490" data-name="Path 1490" d="M51.236,36.265H6.764c-3.357,0-6.088-2.107-6.088-4.7V5.219c0-2.59,2.731-4.7,6.088-4.7H51.236c3.357,0,6.088,2.107,6.088,4.7V31.568C57.324,34.158,54.593,36.265,51.236,36.265ZM6.764,1.565c-2.611,0-4.735,1.639-4.735,3.653V31.568c0,2.015,2.124,3.653,4.735,3.653H51.236c2.611,0,4.735-1.638,4.735-3.653V5.219c0-2.014-2.124-3.653-4.735-3.653Z" fill="none" stroke="#000" stroke-miterlimit="10" stroke-width="1.188"/>
            <path id="Path_1491" data-name="Path 1491" d="M40.6,44.434H36.686V38.769a.7.7,0,0,0-1.353,0v5.665H22.667V38.769a.7.7,0,0,0-1.353,0v5.665H17.4a.54.54,0,1,0,0,1.044H40.6a.54.54,0,1,0,0-1.044" fill="#1a1a1a"/>
            <path id="Path_1492" data-name="Path 1492" d="M40.6,44.434H36.686V38.769a.7.7,0,0,0-1.353,0v5.665H22.667V38.769a.7.7,0,0,0-1.353,0v5.665H17.4a.54.54,0,1,0,0,1.044H40.6a.54.54,0,1,0,0-1.044Z" fill="none" stroke="#000" stroke-miterlimit="10" stroke-width="1.188"/>
          </g>
        </g>
      </g>
      <path id="Color_Overlay" data-name="Color Overlay" d="M39.01,48.478H20.4a.54.54,0,1,1,0-1.044h3.916V41.769a.7.7,0,0,1,1.353,0v5.665H38.333V41.769a.7.7,0,0,1,1.353,0v5.665H43.6a.54.54,0,1,1,0,1.044ZM9.764,39.265c-3.357,0-6.088-2.108-6.088-4.7V8.219c0-2.59,2.731-4.7,6.088-4.7H54.236c3.357,0,6.088,2.107,6.088,4.7V34.568c0,2.589-2.731,4.7-6.088,4.7ZM5.029,8.219V34.568c0,2.014,2.124,3.653,4.735,3.653H54.236c2.611,0,4.735-1.639,4.735-3.653V8.219c0-2.014-2.124-3.654-4.735-3.654H9.764C7.153,4.565,5.029,6.2,5.029,8.219Z" fill="#40515d"/>
    </g>
  </g>
</svg>
